<?xml version="1.0" encoding="utf-8"?>
<!-- Generator: Adobe Illustrator 19.0.0, SVG Export Plug-In . SVG Version: 6.00 Build 0)  -->
<svg version="1.1" id="Layer_1" xmlns="http://www.w3.org/2000/svg" xmlns:xlink="http://www.w3.org/1999/xlink" x="0px" y="0px"
	 viewBox="0 0 560 960" enable-background="new 0 0 560 960" xml:space="preserve">
<linearGradient id="SVGID_1_" gradientUnits="userSpaceOnUse" x1="381.4305" y1="-8.017196e-009" x2="381.4305" y2="231.25">
	<stop  offset="0" style="stop-color:#4AA38B"/>
	<stop  offset="0.1884" style="stop-color:#379792"/>
	<stop  offset="0.4957" style="stop-color:#1E889B"/>
	<stop  offset="0.7753" style="stop-color:#0E7EA1"/>
	<stop  offset="1" style="stop-color:#097BA3"/>
</linearGradient>
<path fill="url(#SVGID_1_)" d="M202.9,0c17.3,18,45.8,42.9,87.4,58.4c87.9,32.7,138.6-12.6,193.4,22.1
	c58.9,37.3,69.4,133.7,76.4,150.7V0H202.9z"/>
<linearGradient id="SVGID_2_" gradientUnits="userSpaceOnUse" x1="329.3116" y1="766.1176" x2="163.0302" y2="1054.1255">
	<stop  offset="0" style="stop-color:#4AA38B"/>
	<stop  offset="0.1884" style="stop-color:#379792"/>
	<stop  offset="0.4957" style="stop-color:#1E889B"/>
	<stop  offset="0.7753" style="stop-color:#0E7EA1"/>
	<stop  offset="1" style="stop-color:#097BA3"/>
</linearGradient>
<path fill="url(#SVGID_2_)" d="M0,743.1c32.6-1.3,82.9,0,140.8,16c80.5,22.2,117.6,56.9,181.3,87.5c49.9,24,127.2,50.9,238,52.8V960
	H0V743.1z"/>
<linearGradient id="SVGID_3_" gradientUnits="userSpaceOnUse" x1="56.2749" y1="303.8919" x2="-24.5212" y2="443.8349">
	<stop  offset="0" style="stop-color:#4AA38B"/>
	<stop  offset="0.1884" style="stop-color:#379792"/>
	<stop  offset="0.4957" style="stop-color:#1E889B"/>
	<stop  offset="0.7753" style="stop-color:#0E7EA1"/>
	<stop  offset="1" style="stop-color:#097BA3"/>
</linearGradient>
<path fill="url(#SVGID_3_)" d="M0.7,458.4c31.2,0,61.7-28,61.6-59.4c0-3.6-0.5-7.3-1.3-11c-1.6-6.7-4.7-13.3-4.4-20.2
	c0.2-6,2.9-11.5,4.4-17.3c3.5-13.6-0.2-28-7.6-39.6c-11.2-17.6-31.4-30.2-52.6-30.2"/>
<linearGradient id="SVGID_4_" gradientUnits="userSpaceOnUse" x1="521.4117" y1="623.1193" x2="582.4102" y2="555.8674" gradientTransform="matrix(0.2115 0.9774 -0.9774 0.2115 1005.177 -86.6484)">
	<stop  offset="0" style="stop-color:#4AA38B"/>
	<stop  offset="0.1884" style="stop-color:#379792"/>
	<stop  offset="0.4957" style="stop-color:#1E889B"/>
	<stop  offset="0.7753" style="stop-color:#0E7EA1"/>
	<stop  offset="1" style="stop-color:#097BA3"/>
</linearGradient>
<path fill="url(#SVGID_4_)" d="M561,641.8l-39.9-15.2c-6.2-2.4-10.7-7.9-11.8-14.5l-6.8-42.2c-1.1-6.6,1.5-13.2,6.7-17.4l33.2-27
	c5.2-4.2,12.2-5.3,18.4-3"/>
</svg>
